<mxfile host="app.diagrams.net" modified="2024-02-22T14:09:52.578Z" agent="Mozilla/5.0 (Windows NT 10.0; Win64; x64) AppleWebKit/537.36 (KHTML, like Gecko) Chrome/121.0.0.0 Safari/537.36" etag="GJ_03O07-B2h6oYNlozC" version="23.1.5" type="device">
  <diagram name="Страница — 1" id="dMklHv4wkPNwdMdGU1oO">
    <mxGraphModel dx="808" dy="428" grid="1" gridSize="10" guides="1" tooltips="1" connect="1" arrows="1" fold="1" page="1" pageScale="1" pageWidth="827" pageHeight="1169" math="0" shadow="0">
      <root>
        <mxCell id="0" />
        <mxCell id="1" parent="0" />
        <mxCell id="X3Yt5psmKC18bbx0COTn-23" value="" style="edgeStyle=orthogonalEdgeStyle;rounded=0;orthogonalLoop=1;jettySize=auto;html=1;" edge="1" parent="1" source="X3Yt5psmKC18bbx0COTn-5" target="X3Yt5psmKC18bbx0COTn-12">
          <mxGeometry relative="1" as="geometry" />
        </mxCell>
        <mxCell id="X3Yt5psmKC18bbx0COTn-24" value="" style="edgeStyle=orthogonalEdgeStyle;rounded=0;orthogonalLoop=1;jettySize=auto;html=1;" edge="1" parent="1" source="X3Yt5psmKC18bbx0COTn-5" target="X3Yt5psmKC18bbx0COTn-12">
          <mxGeometry relative="1" as="geometry" />
        </mxCell>
        <mxCell id="X3Yt5psmKC18bbx0COTn-5" value="Клиент Банка" style="shape=umlActor;verticalLabelPosition=bottom;verticalAlign=top;html=1;outlineConnect=0;" vertex="1" parent="1">
          <mxGeometry x="90" y="180" width="30" height="60" as="geometry" />
        </mxCell>
        <mxCell id="X3Yt5psmKC18bbx0COTn-8" value="" style="endArrow=none;html=1;rounded=0;exitX=0;exitY=0.5;exitDx=0;exitDy=0;" edge="1" parent="1" source="X3Yt5psmKC18bbx0COTn-19" target="X3Yt5psmKC18bbx0COTn-5">
          <mxGeometry width="50" height="50" relative="1" as="geometry">
            <mxPoint x="220" y="210" as="sourcePoint" />
            <mxPoint x="350" y="190" as="targetPoint" />
          </mxGeometry>
        </mxCell>
        <mxCell id="X3Yt5psmKC18bbx0COTn-11" value="" style="endArrow=none;html=1;rounded=0;entryX=0;entryY=0.5;entryDx=0;entryDy=0;" edge="1" parent="1" source="X3Yt5psmKC18bbx0COTn-5">
          <mxGeometry width="50" height="50" relative="1" as="geometry">
            <mxPoint x="380" y="240" as="sourcePoint" />
            <mxPoint x="220" y="340" as="targetPoint" />
          </mxGeometry>
        </mxCell>
        <mxCell id="X3Yt5psmKC18bbx0COTn-12" value="Операционист" style="shape=umlActor;verticalLabelPosition=bottom;verticalAlign=top;html=1;outlineConnect=0;" vertex="1" parent="1">
          <mxGeometry x="90" y="310" width="30" height="60" as="geometry" />
        </mxCell>
        <mxCell id="X3Yt5psmKC18bbx0COTn-13" value="" style="endArrow=none;html=1;rounded=0;exitX=0;exitY=0.5;exitDx=0;exitDy=0;" edge="1" parent="1" target="X3Yt5psmKC18bbx0COTn-12">
          <mxGeometry width="50" height="50" relative="1" as="geometry">
            <mxPoint x="220" y="340" as="sourcePoint" />
            <mxPoint x="430" y="190" as="targetPoint" />
          </mxGeometry>
        </mxCell>
        <mxCell id="X3Yt5psmKC18bbx0COTn-14" value="" style="endArrow=none;html=1;rounded=0;entryX=0;entryY=0.5;entryDx=0;entryDy=0;" edge="1" parent="1" source="X3Yt5psmKC18bbx0COTn-12" target="X3Yt5psmKC18bbx0COTn-19">
          <mxGeometry width="50" height="50" relative="1" as="geometry">
            <mxPoint x="380" y="240" as="sourcePoint" />
            <mxPoint x="220" y="210" as="targetPoint" />
          </mxGeometry>
        </mxCell>
        <mxCell id="X3Yt5psmKC18bbx0COTn-16" value="Extends" style="endArrow=block;endSize=16;endFill=0;html=1;rounded=0;entryX=1;entryY=0.5;entryDx=0;entryDy=0;exitX=0;exitY=0.5;exitDx=0;exitDy=0;" edge="1" parent="1" source="X3Yt5psmKC18bbx0COTn-21" target="X3Yt5psmKC18bbx0COTn-19">
          <mxGeometry width="160" relative="1" as="geometry">
            <mxPoint x="470" y="210" as="sourcePoint" />
            <mxPoint x="340" y="210" as="targetPoint" />
          </mxGeometry>
        </mxCell>
        <mxCell id="X3Yt5psmKC18bbx0COTn-19" value="Пополнить счёт" style="ellipse;whiteSpace=wrap;html=1;" vertex="1" parent="1">
          <mxGeometry x="220" y="175" width="120" height="70" as="geometry" />
        </mxCell>
        <mxCell id="X3Yt5psmKC18bbx0COTn-20" value="Снять деньги со счёта" style="ellipse;whiteSpace=wrap;html=1;" vertex="1" parent="1">
          <mxGeometry x="220" y="305" width="120" height="70" as="geometry" />
        </mxCell>
        <mxCell id="X3Yt5psmKC18bbx0COTn-21" value="Открыть счёт" style="ellipse;whiteSpace=wrap;html=1;" vertex="1" parent="1">
          <mxGeometry x="470" y="175" width="140" height="70" as="geometry" />
        </mxCell>
        <mxCell id="X3Yt5psmKC18bbx0COTn-22" value="Кассир" style="shape=umlActor;verticalLabelPosition=bottom;verticalAlign=top;html=1;outlineConnect=0;" vertex="1" parent="1">
          <mxGeometry x="525" y="250" width="30" height="60" as="geometry" />
        </mxCell>
        <mxCell id="X3Yt5psmKC18bbx0COTn-26" value="" style="endArrow=none;html=1;rounded=0;entryX=1;entryY=0.5;entryDx=0;entryDy=0;" edge="1" parent="1" source="X3Yt5psmKC18bbx0COTn-22" target="X3Yt5psmKC18bbx0COTn-20">
          <mxGeometry width="50" height="50" relative="1" as="geometry">
            <mxPoint x="340" y="290" as="sourcePoint" />
            <mxPoint x="390" y="240" as="targetPoint" />
          </mxGeometry>
        </mxCell>
        <mxCell id="X3Yt5psmKC18bbx0COTn-27" value="" style="endArrow=none;html=1;rounded=0;entryX=0.993;entryY=0.57;entryDx=0;entryDy=0;entryPerimeter=0;" edge="1" parent="1" source="X3Yt5psmKC18bbx0COTn-22" target="X3Yt5psmKC18bbx0COTn-19">
          <mxGeometry width="50" height="50" relative="1" as="geometry">
            <mxPoint x="340" y="290" as="sourcePoint" />
            <mxPoint x="390" y="240" as="targetPoint" />
          </mxGeometry>
        </mxCell>
        <mxCell id="X3Yt5psmKC18bbx0COTn-31" value="Закрыть счёт" style="ellipse;whiteSpace=wrap;html=1;" vertex="1" parent="1">
          <mxGeometry x="470" y="340" width="140" height="70" as="geometry" />
        </mxCell>
        <mxCell id="X3Yt5psmKC18bbx0COTn-32" value="Extends" style="endArrow=block;endSize=16;endFill=0;html=1;rounded=0;exitX=0;exitY=0.5;exitDx=0;exitDy=0;entryX=1.025;entryY=0.573;entryDx=0;entryDy=0;entryPerimeter=0;" edge="1" parent="1" source="X3Yt5psmKC18bbx0COTn-31" target="X3Yt5psmKC18bbx0COTn-20">
          <mxGeometry width="160" relative="1" as="geometry">
            <mxPoint x="290" y="260" as="sourcePoint" />
            <mxPoint x="450" y="260" as="targetPoint" />
          </mxGeometry>
        </mxCell>
      </root>
    </mxGraphModel>
  </diagram>
</mxfile>
